<svg id="Layer_1" data-name="Layer 1" xmlns="http://www.w3.org/2000/svg" width="1009.17" height="223.69" viewBox="0 0 1009.17 223.69"><path d="M362.08,534.15c21.67,4.91,27.16,17.77,27.16,29.9,0,18.78-14.16,32.79-42.75,32.79-30.05,0-43.48-15-43.48-26.29,0-5.78,4.19-9.82,10-9.82,12.85,0,9.53,18.77,33.51,18.77,12.27,0,19.06-6.78,19.06-13.72,0-4.19-2-8.81-10.11-10.83l-26.72-6.79c-21.52-5.49-25.42-17.33-25.42-28.45,0-23.11,21.38-31.78,41.45-31.78,18.49,0,40.3,10.4,40.3,24.27,0,5.92-5.05,9.38-10.83,9.38-11,0-9-15.45-31.06-15.45-11,0-17,5.06-17,12.28s8.67,9.53,16.18,11.26Z" transform="translate(-38.73 -421.33)" fill="#31009a"/><path d="M409.46,532.71h-3.61c-5.92,0-8.37-2.31-8.37-6.94s2.45-6.93,8.37-6.93h3.61V506c0-6.94,4.19-10.55,10.55-10.55s10.54,3.61,10.54,10.55v12.85h6.36c6.21,0,9.53,1.88,9.53,6.93s-3.32,6.94-9.53,6.94h-6.36v42.17c0,3.18,1.74,4.91,5.49,4.91h3c4.63,0,7.37,2.6,7.37,7.08,0,6.07-5.2,9.39-15.31,9.39-15.31,0-21.67-6.36-21.67-18.78Z" transform="translate(-38.73 -421.33)" fill="#31009a"/><path d="M527.47,574c0,8.81,2.17,10.83,2.17,14.15,0,4.77-4.48,8.09-9.53,8.09-9.1,0-12.14-5.78-12.43-12.28-8.23,9.1-17.76,12.28-28.88,12.28-12,0-23.84-8.23-23.84-21.52,0-17.48,13.29-22.39,29.47-24.27L497.28,549c5.06-.58,9.1-1.74,9.1-7.8s-6.21-8.67-13.28-8.67c-15.6,0-16,11.56-24.42,11.56-5.34,0-8.95-3.76-8.95-8.09,0-8.38,11.84-19.07,33.51-19.07,20.22,0,34.23,6.5,34.23,21.67Zm-21.09-15.17c-2.31,2.17-6.64,2.89-9.1,3.32l-7.65,1.16c-8.81,1.3-13.58,4-13.58,10.4,0,4.76,4.48,8.66,11.7,8.66,11.56,0,18.63-7.51,18.63-15.31Z" transform="translate(-38.73 -421.33)" fill="#31009a"/><path d="M581.21,517c17.62,0,30.76,10,30.76,19.79,0,6.07-4.48,9.1-9.82,9.1-10,0-6.36-12.42-21.52-12.42-8.24,0-17.91,5.63-17.91,24.7,0,13.14,6.21,21.66,17.76,21.66,14.74,0,11.56-13.57,22.68-13.57,5.34,0,8.81,3.9,8.81,8.08,0,9.25-10.4,22-32.06,22-26,0-38.28-16-38.28-38.13C541.63,533.86,555.35,517,581.21,517Z" transform="translate(-38.73 -421.33)" fill="#31009a"/><path d="M623.24,499.05c0-6.93,4.19-10.54,10.54-10.54s10.55,3.61,10.55,10.54v48l23.4-26c2.16-2.31,4.91-4,8.08-4,4.77,0,10,4.19,10,9.54,0,3.75-1.3,4.91-3.18,6.93L667,549.75l22,29.47a11.5,11.5,0,0,1,2.17,6.78,10.24,10.24,0,0,1-10,10.26,10.81,10.81,0,0,1-9.53-4.91l-19.94-28.17-7.36,6.5v16c0,6.93-4.19,10.54-10.55,10.54s-10.54-3.61-10.54-10.54Z" transform="translate(-38.73 -421.33)" fill="#31009a"/><path d="M757.86,534.15c21.66,4.91,27.15,17.77,27.15,29.9,0,18.78-14.15,32.79-42.75,32.79-30,0-43.48-15-43.48-26.29,0-5.78,4.19-9.82,10-9.82,12.85,0,9.53,18.77,33.51,18.77,12.27,0,19.06-6.78,19.06-13.72,0-4.19-2-8.81-10.11-10.83l-26.72-6.79c-21.52-5.49-25.42-17.33-25.42-28.45,0-23.11,21.38-31.78,41.45-31.78,18.49,0,40.3,10.4,40.3,24.27,0,5.92-5.05,9.38-10.83,9.38-11,0-9-15.45-31.06-15.45-11,0-17,5.06-17,12.28s8.67,9.53,16.18,11.26Z" transform="translate(-38.73 -421.33)" fill="#31009a"/><path d="M817.66,560.58c0,11.13,7.22,19.21,19.5,19.21,15.88,0,15.88-10.4,24.41-10.4a8.71,8.71,0,0,1,8.66,8.24c0,12.71-20.36,18.63-33.07,18.63-29.47,0-40.59-19.93-40.59-38.28,0-24.55,14.88-41,39.86-41,24.27,0,38.14,17.19,38.14,34.52,0,7.23-2.17,9.1-9.25,9.1Zm37-12.13c-1.15-9.68-8.38-16.75-17.76-16.75-10.55,0-16.9,6.5-19.21,16.75Z" transform="translate(-38.73 -421.33)" fill="#31009a"/><path d="M888.15,527.51c0-6.36,2.88-10.55,9.53-10.55s9.53,4.19,9.53,10.55v2.74h.29c5.92-7.8,13.58-13.29,25.57-13.29,12.71,0,26.57,6.36,26.57,27.74v41c0,5.63-2.31,10.54-10.54,10.54s-10.55-4.91-10.55-10.54V548.88c0-8.52-4.18-14.58-13.28-14.58a16.38,16.38,0,0,0-16,16.61v34.81c0,5.63-2.31,10.54-10.54,10.54s-10.54-4.91-10.54-10.54Z" transform="translate(-38.73 -421.33)" fill="#31009a"/><path d="M1047.9,586.29c0,6.5-3,10-9.54,10-6.21,0-9.53-3.47-9.53-10V583h-.29c-3.46,9-12,13.29-22.24,13.29-17.62,0-33.08-12.86-33.08-40.15,0-20.23,10.26-39.15,32.5-39.15,9.39,0,16.61,3.9,20.8,10.69h.29v-28.6c0-6.93,4.19-10.54,10.54-10.54s10.55,3.61,10.55,10.54Zm-36.83-6.5c12.27,0,16.89-11,16.89-23,0-10.83-4-23.55-16.89-23.4-13.44,0-16.76,13.58-16.76,23.4C994.31,569.25,999.8,579.5,1011.07,579.79Z" transform="translate(-38.73 -421.33)" fill="#31009a"/><path d="M179.69,500h34.56a6.26,6.26,0,0,1,6.25,6.26V613.5c.4,2.39-.39,4.6-2.16,5.44L174.9,639.68c-2.3,1.11-5.48-.64-7-3.77l-.12-15.82h-61.1a6.26,6.26,0,0,1-6.26-6.26V581.64" transform="translate(-38.73 -421.33)" fill="none" stroke="#ff6211" stroke-miterlimit="10" stroke-width="10"/><path d="M43.83,452.84V560a6.27,6.27,0,0,0,6.26,6.27H157.61a6.27,6.27,0,0,0,6.27-6.27V452.51a6.27,6.27,0,0,0-6.27-6.26H96.52l-.12-15.82c-1.49-3.13-4.66-4.87-7-3.77L46,447.4C44.23,448.24,43.43,450.45,43.83,452.84Z" transform="translate(-38.73 -421.33)" fill="none" stroke="#31009a" stroke-miterlimit="10" stroke-width="10"/></svg>